<?xml version="1.0" encoding="UTF-8"?>
<svg width="32" height="32" viewBox="0 0 32 32" fill="none" xmlns="http://www.w3.org/2000/svg">
  <!-- Background circle -->
  <circle cx="16" cy="16" r="16" fill="#4F46E5"/>
  
  <!-- Carpet pattern - outer ring -->
  <path d="M16 2C8.268 2 2 8.268 2 16s6.268 14 14 14 14-6.268 14-14S23.732 2 16 2zm0 2c6.627 0 12 5.373 12 12s-5.373 12-12 12S4 22.627 4 16 9.373 4 16 4z" fill="#ffffff" fill-opacity="0.9"/>
  
  <!-- Inner decorative patterns -->
  <circle cx="16" cy="16" r="8" fill="#ffffff" fill-opacity="0.2"/>
  <circle cx="16" cy="16" r="6" stroke="#ffffff" stroke-width="1" fill="none"/>
  
  <!-- Carpet pattern elements -->
  <path d="M16 10v12M10 16h12" stroke="#ffffff" stroke-width="1"/>
  <path d="M13.172 13.172l5.656 5.656M18.828 13.172l-5.656 5.656" stroke="#ffffff" stroke-width="1"/>
  
  <!-- Central design element -->
  <circle cx="16" cy="16" r="3" fill="#ffffff"/>
  <circle cx="16" cy="16" r="1.5" fill="#4F46E5"/>
</svg> 